<svg width="317" height="348" viewBox="0 0 317 348" fill="none" xmlns="http://www.w3.org/2000/svg">
<path d="M185.24 8.63999L224.48 75C226.08 77.64 226.88 79.88 226.88 81.72C226.88 83.48 226.16 84.8 224.72 85.68C223.28 86.56 221.6 87 219.68 87H181.04C177.12 87 174.6 86.28 173.48 84.84C173.16 84.36 172.72 83.52 172.16 82.32L168.68 74.88C167.64 72.56 165.2 71.24 161.36 70.92H138.68C137 70.92 135.72 71.08 134.84 71.4C133.96 71.72 133.24 72.44 132.68 73.56L128 83.28C127.2 84.72 126.32 85.72 125.36 86.28C124.4 86.76 123 87 121.16 87H110.36C107.24 87 105.56 85.88 105.32 83.64C105.24 83.32 105.2 83 105.2 82.68C105.2 80.84 105.8 79.08 107 77.4L144.56 11.16C148.16 4.92 154 1.8 162.08 1.8H171.68C178.08 1.8 182.6 4.07999 185.24 8.63999ZM146.36 39.36L140.84 50.28C140.52 51 140.36 51.64 140.36 52.2C140.36 54.28 141.36 55.32 143.36 55.32H154.28C155.96 55.32 157.12 54.92 157.76 54.12C158.4 53.24 158.72 52.48 158.72 51.84C158.72 51.2 158.6 50.56 158.36 49.92L153.8 39.6C152.84 37.52 151.6 36.48 150.08 36.48C148.56 36.48 147.32 37.44 146.36 39.36Z" fill="#EE4239"/>
<path d="M75.48 188.68C75.4 190.44 74.64 192.08 73.2 193.6C71.76 195.04 69.84 195.84 67.44 196C62.88 196.32 57.4 196.48 51 196.48C44.6 196.48 38.72 196.32 33.36 196C30.96 195.84 29.04 195.04 27.6 193.6C26.16 192.08 25.4 190.44 25.32 188.68C25.08 176.52 24.96 166.16 24.96 157.6C24.96 148.96 25 142.64 25.08 138.64C25.08 135.6 23.72 134.08 21 134.08H10.2C8.52 134.08 7.16 133.68 6.12 132.88C5.08 132.08 4.48 130.68 4.32 128.68C4.24 126.68 4.2 124.6 4.2 122.44C4.2 120.28 4.24 118.44 4.32 116.92C4.48 115.32 5.12 114.12 6.24 113.32C7.44 112.44 8.72 112 10.08 112C20.48 111.84 34.56 111.76 52.32 111.76C70.08 111.76 82.8 111.84 90.48 112C91.84 112.08 93.08 112.52 94.2 113.32C95.4 114.12 96.04 115.32 96.12 116.92C96.28 118.44 96.36 120.24 96.36 122.32C96.36 124.4 96.32 126.4 96.24 128.32C96 131.92 94.04 133.72 90.36 133.72H79.56C76.84 133.72 75.48 135.12 75.48 137.92C75.72 148 75.84 157.12 75.84 165.28C75.84 173.44 75.72 181.24 75.48 188.68Z" fill="#EE4239"/>
<path d="M49.56 313.4C35.16 313.4 23.76 309.76 15.36 302.48C7.04 295.12 2.88 284.76 2.88 271.4C2.88 263.24 4.2 256.08 6.84 249.92C9.56 243.76 13.36 238.84 18.24 235.16C27.92 227.88 40.68 224.24 56.52 224.24C66.76 224.24 77 225.64 87.24 228.44C91.16 229.72 93.12 232.88 93.12 237.92C93.12 244.8 90.96 248.24 86.64 248.24C85.92 248.24 83.56 247.92 79.56 247.28C75.56 246.64 72.76 246.32 71.16 246.32C65.48 246.32 61.08 248.32 57.96 252.32C54.92 256.24 53.4 260.96 53.4 266.48C53.4 271.92 54.84 276.72 57.72 280.88C60.6 285.04 64.52 287.2 69.48 287.36C72.84 287.52 78.8 287.6 87.36 287.6C91.52 287.6 93.8 289.56 94.2 293.48C94.44 294.92 94.56 296.4 94.56 297.92C94.56 299.36 94.44 300.84 94.2 302.36C93.72 305.24 91.48 307.36 87.48 308.72C83.48 310 77.72 311.08 70.2 311.96C62.68 312.92 55.8 313.4 49.56 313.4Z" fill="#FDBD23"/>
<path d="M230.88 188.44C230.72 190.28 229.92 191.92 228.48 193.36C227.12 194.8 225.24 195.6 222.84 195.76C216.28 196.16 210.88 196.36 206.64 196.36C202.4 196.36 197.4 196.16 191.64 195.76C187.24 195.36 184.92 193.44 184.68 190C184.6 188.64 184.52 186.88 184.44 184.72C184.36 182.48 184.24 180.52 184.08 178.84C184 177.16 183.56 175.84 182.76 174.88C182.04 173.92 180.72 173.44 178.8 173.44H169.8C167.88 173.44 166.52 173.92 165.72 174.88C165 175.84 164.56 177.16 164.4 178.84C164.32 180.52 164.24 182.48 164.16 184.72C164.08 186.88 164 188.64 163.92 190C163.68 193.44 161.36 195.36 156.96 195.76C151.2 196.16 145.92 196.36 141.12 196.36C136.4 196.36 130.76 196.16 124.2 195.76C121.8 195.6 119.88 194.8 118.44 193.36C117.08 191.92 116.32 190.28 116.16 188.44C115.52 181.4 115.2 170.08 115.2 154.48C115.2 138.88 115.36 128.76 115.68 124.12C116 119.4 116.72 116.2 117.84 114.52C118.96 112.76 121.2 111.88 124.56 111.88H153.84C156.64 111.88 159 112.84 160.92 114.76C162.92 116.68 163.92 119.16 163.92 122.2V147.4C163.92 150.28 165.16 151.72 167.64 151.72H180.96C183.44 151.72 184.68 150.28 184.68 147.4V122.2C184.68 119.16 185.64 116.68 187.56 114.76C189.56 112.84 191.96 111.88 194.76 111.88H222.48C225.84 111.88 228.08 112.76 229.2 114.52C230.32 116.2 231.04 119.4 231.36 124.12C231.68 128.76 231.84 138.88 231.84 154.48C231.84 170.08 231.52 181.4 230.88 188.44Z" fill="#1881C2"/>
<path d="M220.44 227C222.04 227 222.84 227.8 222.84 229.4C222.84 230.44 222.4 231.56 221.52 232.76L194.64 275.36C194.64 281.84 194.44 291.28 194.04 303.68C193.96 305.44 193.2 307.08 191.76 308.6C190.32 310.04 188.4 310.84 186 311C181.44 311.32 175.96 311.48 169.56 311.48C163.16 311.48 157.28 311.32 151.92 311C149.52 310.84 147.6 310.04 146.16 308.6C144.72 307.08 143.96 305.44 143.88 303.68C143.72 295.6 143.64 287.2 143.64 278.48L119.4 237.8C118.2 235.96 117.6 234.44 117.6 233.24C117.6 229.24 119.56 227.24 123.48 227.24L164.52 227C166.84 227 168.56 227.36 169.68 228.08C170.88 228.8 172.28 230.28 173.88 232.52L181.2 248.24C182.48 250 183.52 250.88 184.32 250.88C185.2 250.88 186.24 250.16 187.44 248.72L199.68 229.52C201.04 227.84 202.76 227 204.84 227H220.44Z" fill="#EE4239"/>
<path d="M49.56 89.4C35.16 89.4 23.76 85.76 15.36 78.48C7.04 71.12 2.88 60.76 2.88 47.4C2.88 39.24 4.2 32.08 6.84 25.92C9.56 19.76 13.36 14.84 18.24 11.16C27.92 3.87999 40.68 0.239994 56.52 0.239994C66.76 0.239994 77 1.64 87.24 4.44C91.16 5.72 93.12 8.87999 93.12 13.92C93.12 20.8 90.96 24.24 86.64 24.24C85.92 24.24 83.56 23.92 79.56 23.28C75.56 22.64 72.76 22.32 71.16 22.32C65.48 22.32 61.08 24.32 57.96 28.32C54.92 32.24 53.4 36.96 53.4 42.48C53.4 47.92 54.84 52.72 57.72 56.88C60.6 61.04 64.52 63.2 69.48 63.36C72.84 63.52 78.8 63.6 87.36 63.6C91.52 63.6 93.8 65.56 94.2 69.48C94.44 70.92 94.56 72.4 94.56 73.92C94.56 75.36 94.44 76.84 94.2 78.36C93.72 81.24 91.48 83.36 87.48 84.72C83.48 86 77.72 87.08 70.2 87.96C62.68 88.92 55.8 89.4 49.56 89.4Z" fill="#FDBD23"/>
</svg>
