<svg width="328" height="75" viewBox="0 0 328 75" fill="none" xmlns="http://www.w3.org/2000/svg">
<path d="M29.7434 47.08C23.2634 47.08 18.1334 45.442 14.3534 42.166C10.6094 38.854 8.73744 34.192 8.73744 28.18C8.73744 24.508 9.33144 21.286 10.5194 18.514C11.7434 15.742 13.4534 13.528 15.6494 11.872C20.0054 8.596 25.7474 6.958 32.8754 6.958C37.4834 6.958 42.0914 7.588 46.6994 8.848C48.4634 9.424 49.3454 10.846 49.3454 13.114C49.3454 16.21 48.3734 17.758 46.4294 17.758C46.1054 17.758 45.0434 17.614 43.2434 17.326C41.4434 17.038 40.1834 16.894 39.4634 16.894C36.9074 16.894 34.9274 17.794 33.5234 19.594C32.1554 21.358 31.4714 23.482 31.4714 25.966C31.4714 28.414 32.1194 30.574 33.4154 32.446C34.7114 34.318 36.4754 35.29 38.7074 35.362C40.2194 35.434 42.9014 35.47 46.7534 35.47C48.6254 35.47 49.6514 36.352 49.8314 38.116C49.9394 38.764 49.9934 39.43 49.9934 40.114C49.9934 40.762 49.9394 41.428 49.8314 42.112C49.6154 43.408 48.6074 44.362 46.8074 44.974C45.0074 45.55 42.4154 46.036 39.0314 46.432C35.6474 46.864 32.5514 47.08 29.7434 47.08ZM91.7518 10.738L109.41 40.6C110.13 41.788 110.49 42.796 110.49 43.624C110.49 44.416 110.166 45.01 109.518 45.406C108.87 45.802 108.114 46 107.25 46H89.8618C88.0978 46 86.9638 45.676 86.4598 45.028C86.3158 44.812 86.1178 44.434 85.8658 43.894L84.2998 40.546C83.8318 39.502 82.7338 38.908 81.0058 38.764H70.7998C70.0438 38.764 69.4678 38.836 69.0718 38.98C68.6758 39.124 68.3518 39.448 68.0998 39.952L65.9938 44.326C65.6338 44.974 65.2378 45.424 64.8058 45.676C64.3738 45.892 63.7438 46 62.9158 46H58.0558C56.6518 46 55.8958 45.496 55.7878 44.488C55.7518 44.344 55.7338 44.2 55.7338 44.056C55.7338 43.228 56.0038 42.436 56.5438 41.68L73.4458 11.872C75.0658 9.064 77.6938 7.66 81.3298 7.66H85.6498C88.5298 7.66 90.5638 8.686 91.7518 10.738ZM74.2558 24.562L71.7718 29.476C71.6278 29.8 71.5558 30.088 71.5558 30.34C71.5558 31.276 72.0058 31.744 72.9058 31.744H77.8198C78.5758 31.744 79.0978 31.564 79.3858 31.204C79.6738 30.808 79.8178 30.466 79.8178 30.178C79.8178 29.89 79.7638 29.602 79.6558 29.314L77.6038 24.67C77.1718 23.734 76.6138 23.266 75.9298 23.266C75.2458 23.266 74.6878 23.698 74.2558 24.562ZM148.345 42.706C148.309 43.498 147.967 44.236 147.319 44.92C146.671 45.568 145.807 45.928 144.727 46C142.675 46.144 140.209 46.216 137.329 46.216C134.449 46.216 131.803 46.144 129.391 46C128.311 45.928 127.447 45.568 126.799 44.92C126.151 44.236 125.809 43.498 125.773 42.706C125.665 37.234 125.611 32.572 125.611 28.72C125.611 24.832 125.629 21.988 125.665 20.188C125.665 18.82 125.053 18.136 123.829 18.136H118.969C118.213 18.136 117.601 17.956 117.133 17.596C116.665 17.236 116.395 16.606 116.323 15.706C116.287 14.806 116.269 13.87 116.269 12.898C116.269 11.926 116.287 11.098 116.323 10.414C116.395 9.694 116.683 9.154 117.187 8.794C117.727 8.398 118.303 8.2 118.915 8.2C123.595 8.128 129.931 8.092 137.923 8.092C145.915 8.092 151.639 8.128 155.095 8.2C155.707 8.236 156.265 8.434 156.769 8.794C157.309 9.154 157.597 9.694 157.633 10.414C157.705 11.098 157.741 11.908 157.741 12.844C157.741 13.78 157.723 14.68 157.687 15.544C157.579 17.164 156.697 17.974 155.041 17.974H150.181C148.957 17.974 148.345 18.604 148.345 19.864C148.453 24.4 148.507 28.504 148.507 32.176C148.507 35.848 148.453 39.358 148.345 42.706ZM183.927 47.08C177.447 47.08 172.317 45.442 168.537 42.166C164.793 38.854 162.921 34.192 162.921 28.18C162.921 24.508 163.515 21.286 164.703 18.514C165.927 15.742 167.637 13.528 169.833 11.872C174.189 8.596 179.931 6.958 187.059 6.958C191.667 6.958 196.275 7.588 200.883 8.848C202.647 9.424 203.529 10.846 203.529 13.114C203.529 16.21 202.557 17.758 200.613 17.758C200.289 17.758 199.227 17.614 197.427 17.326C195.627 17.038 194.367 16.894 193.647 16.894C191.091 16.894 189.111 17.794 187.707 19.594C186.339 21.358 185.655 23.482 185.655 25.966C185.655 28.414 186.303 30.574 187.599 32.446C188.895 34.318 190.659 35.29 192.891 35.362C194.403 35.434 197.085 35.47 200.937 35.47C202.809 35.47 203.835 36.352 204.015 38.116C204.123 38.764 204.177 39.43 204.177 40.114C204.177 40.762 204.123 41.428 204.015 42.112C203.799 43.408 202.791 44.362 200.991 44.974C199.191 45.55 196.599 46.036 193.215 46.432C189.831 46.864 186.735 47.08 183.927 47.08ZM263.323 42.598C263.251 43.426 262.891 44.164 262.243 44.812C261.631 45.46 260.785 45.82 259.705 45.892C256.753 46.072 254.323 46.162 252.415 46.162C250.507 46.162 248.257 46.072 245.665 45.892C243.685 45.712 242.641 44.848 242.533 43.3C242.497 42.688 242.461 41.896 242.425 40.924C242.389 39.916 242.335 39.034 242.263 38.278C242.227 37.522 242.029 36.928 241.669 36.496C241.345 36.064 240.751 35.848 239.887 35.848H235.837C234.973 35.848 234.361 36.064 234.001 36.496C233.677 36.928 233.479 37.522 233.407 38.278C233.371 39.034 233.335 39.916 233.299 40.924C233.263 41.896 233.227 42.688 233.191 43.3C233.083 44.848 232.039 45.712 230.059 45.892C227.467 46.072 225.091 46.162 222.931 46.162C220.807 46.162 218.269 46.072 215.317 45.892C214.237 45.82 213.373 45.46 212.725 44.812C212.113 44.164 211.771 43.426 211.699 42.598C211.411 39.43 211.267 34.336 211.267 27.316C211.267 20.296 211.339 15.742 211.483 13.654C211.627 11.53 211.951 10.09 212.455 9.334C212.959 8.542 213.967 8.146 215.479 8.146H228.655C229.915 8.146 230.977 8.578 231.841 9.442C232.741 10.306 233.191 11.422 233.191 12.79V24.13C233.191 25.426 233.749 26.074 234.865 26.074H240.859C241.975 26.074 242.533 25.426 242.533 24.13V12.79C242.533 11.422 242.965 10.306 243.829 9.442C244.729 8.578 245.809 8.146 247.069 8.146H259.543C261.055 8.146 262.063 8.542 262.567 9.334C263.071 10.09 263.395 11.53 263.539 13.654C263.683 15.742 263.755 20.296 263.755 27.316C263.755 34.336 263.611 39.43 263.323 42.598ZM316.882 8.2C317.602 8.2 317.962 8.56 317.962 9.28C317.962 9.748 317.764 10.252 317.368 10.792L305.272 29.962C305.272 32.878 305.182 37.126 305.002 42.706C304.966 43.498 304.624 44.236 303.976 44.92C303.328 45.568 302.464 45.928 301.384 46C299.332 46.144 296.866 46.216 293.986 46.216C291.106 46.216 288.46 46.144 286.048 46C284.968 45.928 284.104 45.568 283.456 44.92C282.808 44.236 282.466 43.498 282.43 42.706C282.358 39.07 282.322 35.29 282.322 31.366L271.414 13.06C270.874 12.232 270.604 11.548 270.604 11.008C270.604 9.208 271.486 8.308 273.25 8.308L291.718 8.2C292.762 8.2 293.536 8.362 294.04 8.686C294.58 9.01 295.21 9.676 295.93 10.684L299.224 17.758C299.8 18.55 300.268 18.946 300.628 18.946C301.024 18.946 301.492 18.622 302.032 17.974L307.54 9.334C308.152 8.578 308.926 8.2 309.862 8.2H316.882Z" fill="#EE4239"/>
<path d="M15.9648 61.688C16.4334 62.2707 16.9718 63.0243 17.5798 63.949C18.1878 64.861 18.6121 65.469 18.8528 65.773C19.0934 66.077 19.2834 66.229 19.4228 66.229C19.5748 66.229 19.7078 66.1467 19.8218 65.982C19.9358 65.8173 20.3538 65.184 21.0758 64.082C21.7978 62.98 22.3931 62.144 22.8618 61.574C23.3304 60.9913 23.7041 60.6937 23.9828 60.681C24.2614 60.6683 24.6224 60.662 25.0658 60.662C25.5091 60.662 26.0284 60.6747 26.6238 60.7C27.2191 60.7253 27.6118 60.8837 27.8018 61.175C28.0044 61.4537 28.1248 61.8527 28.1628 62.372C28.2388 63.702 28.2768 65.469 28.2768 67.673C28.2768 69.8643 28.2198 71.5933 28.1058 72.86C28.0804 73.164 27.9664 73.4363 27.7638 73.677C27.5611 73.9177 27.2824 74.038 26.9278 74.038C26.1551 74.0507 25.2938 74.057 24.3438 74.057C23.4064 74.057 22.6591 74.038 22.1018 74C21.8991 73.9873 21.7154 73.9113 21.5508 73.772C21.3988 73.62 21.3164 73.4237 21.3038 73.183L21.1898 70.048C21.1771 69.744 21.1074 69.573 20.9808 69.535C20.8668 69.497 20.7591 69.5793 20.6578 69.782C19.9864 70.9727 19.1504 72.3027 18.1498 73.772C17.9091 74.1393 17.5924 74.323 17.1998 74.323C16.8071 74.323 16.4841 74.1393 16.2308 73.772C15.7874 73.1387 15.0338 71.796 13.9698 69.744C13.9064 69.6173 13.8304 69.5413 13.7418 69.516C13.6658 69.4907 13.5961 69.5223 13.5328 69.611C13.4694 69.6997 13.4378 69.8453 13.4378 70.048L13.3428 73.183C13.3301 73.4237 13.2224 73.62 13.0198 73.772C12.8171 73.9113 12.5828 73.9873 12.3168 74H10.4358C10.0938 73.9873 9.81509 73.867 9.59976 73.639C9.39709 73.411 9.27676 73.1513 9.23876 72.86C9.13743 71.7327 9.08676 69.9847 9.08676 67.616C9.08676 65.2347 9.11843 63.4867 9.18176 62.372C9.21976 61.84 9.34009 61.4283 9.54276 61.137C9.74543 60.8457 10.1064 60.7 10.6258 60.7C13.2858 60.7 14.7234 60.719 14.9388 60.757C15.1541 60.795 15.4961 61.1053 15.9648 61.688ZM42.4379 61.593L48.6509 72.1C48.9042 72.518 49.0309 72.8727 49.0309 73.164C49.0309 73.4427 48.9169 73.6517 48.6889 73.791C48.4609 73.9303 48.1949 74 47.8909 74H41.7729C41.1522 74 40.7532 73.886 40.5759 73.658C40.5252 73.582 40.4555 73.449 40.3669 73.259L39.8159 72.081C39.6512 71.7137 39.2649 71.5047 38.6569 71.454H35.0659C34.7999 71.454 34.5972 71.4793 34.4579 71.53C34.3185 71.5807 34.2045 71.6947 34.1159 71.872L33.3749 73.411C33.2482 73.639 33.1089 73.7973 32.9569 73.886C32.8049 73.962 32.5832 74 32.2919 74H30.5819C30.0879 74 29.8219 73.8227 29.7839 73.468C29.7712 73.4173 29.7649 73.3667 29.7649 73.316C29.7649 73.0247 29.8599 72.746 30.0499 72.48L35.9969 61.992C36.5669 61.004 37.4915 60.51 38.7709 60.51H40.2909C41.3042 60.51 42.0199 60.871 42.4379 61.593ZM36.2819 66.457L35.4079 68.186C35.3572 68.3 35.3319 68.4013 35.3319 68.49C35.3319 68.8193 35.4902 68.984 35.8069 68.984H37.5359C37.8019 68.984 37.9855 68.9207 38.0869 68.794C38.1882 68.6547 38.2389 68.5343 38.2389 68.433C38.2389 68.3317 38.2199 68.2303 38.1819 68.129L37.4599 66.495C37.3079 66.1657 37.1115 66.001 36.8709 66.001C36.6302 66.001 36.4339 66.153 36.2819 66.457ZM61.8396 73.677L59.6166 71.017C59.3886 70.7383 59.1542 70.599 58.9136 70.599C58.6222 70.599 58.4766 70.8397 58.4766 71.321V73.126C58.4766 73.354 58.3752 73.5377 58.1726 73.677C57.9699 73.8163 57.7292 73.8987 57.4506 73.924C56.6526 73.9747 55.7469 74 54.7336 74C53.7329 74 52.7829 73.9747 51.8836 73.924C51.5036 73.8987 51.1996 73.772 50.9716 73.544C50.7436 73.3033 50.6169 73.0373 50.5916 72.746C50.4902 71.6313 50.4396 69.9023 50.4396 67.559C50.4396 65.203 50.4649 63.607 50.5156 62.771C50.5789 61.935 50.6929 61.384 50.8576 61.118C51.0349 60.8393 51.3896 60.7 51.9216 60.7H57.0136C57.4316 60.7 57.7799 60.8647 58.0586 61.194C58.3372 61.5233 58.4766 61.9287 58.4766 62.41L58.4956 64.538C58.4956 64.804 58.5652 64.937 58.7046 64.937C58.7932 64.937 58.9706 64.8293 59.2366 64.614L62.9606 61.137C63.2646 60.8457 63.6256 60.7 64.0436 60.7C64.4742 60.6873 64.9302 60.681 65.4116 60.681L66.8746 60.7C67.0772 60.7 67.2166 60.795 67.2926 60.985C67.3686 61.175 67.3306 61.346 67.1786 61.498C65.7219 62.9547 64.2652 64.3037 62.8086 65.545C62.6819 65.659 62.6186 65.7793 62.6186 65.906C62.6186 66.02 62.6882 66.1467 62.8276 66.286L63.8536 67.312C64.3729 67.8313 64.7972 68.2557 65.1266 68.585C65.4686 68.9143 65.8676 69.3133 66.3236 69.782C67.2356 70.7193 67.9322 71.4793 68.4136 72.062C68.6669 72.366 68.7936 72.6763 68.7936 72.993C68.7936 73.107 68.7746 73.2273 68.7366 73.354C68.5972 73.7847 68.2932 74 67.8246 74H62.7136C62.3209 74 62.0296 73.8923 61.8396 73.677ZM71.4737 74C71.119 74 70.815 73.886 70.5617 73.658C70.321 73.4173 70.1627 73.031 70.0867 72.499C70.0233 71.9543 69.9917 70.3393 69.9917 67.654C69.9917 64.956 70.036 63.1953 70.1247 62.372C70.226 61.308 70.6757 60.7633 71.4737 60.738C72.3857 60.7127 76.1667 60.7 82.8167 60.7C83.564 60.7 83.9377 61.175 83.9377 62.125C83.9377 62.8723 83.6083 63.246 82.9497 63.246H78.7697C78.5037 63.246 78.2883 63.3347 78.1237 63.512C77.9717 63.6893 77.8957 63.9173 77.8957 64.196V65.564C77.8957 65.944 78.0667 66.134 78.4087 66.134H81.8667C82.0693 66.134 82.2213 66.153 82.3227 66.191C82.4367 66.229 82.538 66.343 82.6267 66.533C82.7153 66.7103 82.7597 67.008 82.7597 67.426C82.7597 67.844 82.6837 68.1227 82.5317 68.262C82.3923 68.4013 82.158 68.471 81.8287 68.471H78.7317C78.415 68.471 78.1933 68.5533 78.0667 68.718C77.9527 68.87 77.8957 69.1107 77.8957 69.44V70.371C77.8957 70.9157 78.1553 71.188 78.6747 71.188H83.4057C83.6337 71.188 83.8363 71.2577 84.0137 71.397C84.191 71.5237 84.2797 71.815 84.2797 72.271C84.2797 72.7143 84.172 73.1133 83.9567 73.468C83.7413 73.8227 83.488 74 83.1967 74H71.4737ZM94.4723 74C94.1177 74 93.8137 73.886 93.5603 73.658C93.3197 73.4173 93.1613 73.031 93.0853 72.499C93.022 71.9543 92.9903 70.3393 92.9903 67.654C92.9903 64.956 93.0347 63.1953 93.1233 62.372C93.2247 61.308 93.6743 60.7633 94.4723 60.738C95.3843 60.7127 99.1653 60.7 105.815 60.7C106.563 60.7 106.936 61.175 106.936 62.125C106.936 62.8723 106.607 63.246 105.948 63.246H101.768C101.502 63.246 101.287 63.3347 101.122 63.512C100.97 63.6893 100.894 63.9173 100.894 64.196V65.564C100.894 65.944 101.065 66.134 101.407 66.134H104.865C105.068 66.134 105.22 66.153 105.321 66.191C105.435 66.229 105.537 66.343 105.625 66.533C105.714 66.7103 105.758 67.008 105.758 67.426C105.758 67.844 105.682 68.1227 105.53 68.262C105.391 68.4013 105.157 68.471 104.827 68.471H101.73C101.414 68.471 101.192 68.5533 101.065 68.718C100.951 68.87 100.894 69.1107 100.894 69.44V70.371C100.894 70.9157 101.154 71.188 101.673 71.188H106.404C106.632 71.188 106.835 71.2577 107.012 71.397C107.19 71.5237 107.278 71.815 107.278 72.271C107.278 72.7143 107.171 73.1133 106.955 73.468C106.74 73.8227 106.487 74 106.195 74H94.4723ZM119.798 73.012C119.57 73.4427 119.171 73.7783 118.601 74.019C118.043 74.2597 117.435 74.38 116.777 74.38C116.118 74.38 115.516 74.266 114.972 74.038C114.427 73.81 114.034 73.4807 113.794 73.05C111.894 69.5413 110.127 66.096 108.493 62.714C108.303 62.3087 108.208 61.9983 108.208 61.783C108.208 61.099 108.518 60.757 109.139 60.757L114.63 60.719C115.098 60.719 115.453 60.8013 115.694 60.966C115.947 61.1307 116.169 61.46 116.359 61.954L118.202 66.666C118.278 66.8687 118.417 66.97 118.62 66.97C118.822 66.97 118.974 66.8687 119.076 66.666L121.565 61.27C121.729 60.928 121.907 60.738 122.097 60.7C122.173 60.6873 122.306 60.681 122.496 60.681L124.681 60.719C124.921 60.719 125.092 60.833 125.194 61.061C125.232 61.1497 125.251 61.2573 125.251 61.384C125.251 61.5107 125.105 61.859 124.814 62.429C124.535 62.999 123.794 64.5823 122.591 67.179C121.4 69.7757 120.469 71.72 119.798 73.012ZM128.158 74C127.804 74 127.5 73.886 127.246 73.658C127.006 73.4173 126.847 73.031 126.771 72.499C126.708 71.9543 126.676 70.3393 126.676 67.654C126.676 64.956 126.721 63.1953 126.809 62.372C126.911 61.308 127.36 60.7633 128.158 60.738C129.07 60.7127 132.851 60.7 139.501 60.7C140.249 60.7 140.622 61.175 140.622 62.125C140.622 62.8723 140.293 63.246 139.634 63.246H135.454C135.188 63.246 134.973 63.3347 134.808 63.512C134.656 63.6893 134.58 63.9173 134.58 64.196V65.564C134.58 65.944 134.751 66.134 135.093 66.134H138.551C138.754 66.134 138.906 66.153 139.007 66.191C139.121 66.229 139.223 66.343 139.311 66.533C139.4 66.7103 139.444 67.008 139.444 67.426C139.444 67.844 139.368 68.1227 139.216 68.262C139.077 68.4013 138.843 68.471 138.513 68.471H135.416C135.1 68.471 134.878 68.5533 134.751 68.718C134.637 68.87 134.58 69.1107 134.58 69.44V70.371C134.58 70.9157 134.84 71.188 135.359 71.188H140.09C140.318 71.188 140.521 71.2577 140.698 71.397C140.876 71.5237 140.964 71.815 140.964 72.271C140.964 72.7143 140.857 73.1133 140.641 73.468C140.426 73.8227 140.173 74 139.881 74H128.158ZM150.292 64.671L150.33 68.186C150.33 68.4267 150.463 68.547 150.729 68.547C151.514 68.547 152.128 68.3317 152.572 67.901C153.028 67.4577 153.256 66.9383 153.256 66.343C153.256 65.7477 153.04 65.2347 152.61 64.804C152.192 64.3733 151.571 64.158 150.748 64.158C150.444 64.158 150.292 64.329 150.292 64.671ZM155.27 70.352C155.51 70.6053 156.365 71.5617 157.835 73.221C157.923 73.335 157.968 73.4363 157.968 73.525C157.968 73.8543 157.822 74.019 157.531 74.019C156.859 74.0317 156.182 74.038 155.498 74.038C154.826 74.038 154.155 74.0317 153.484 74.019C153.116 74.019 152.781 73.8733 152.477 73.582L150.843 71.112C150.779 71.036 150.703 70.9853 150.615 70.96C150.412 70.884 150.311 70.9663 150.311 71.207V73.145C150.311 73.6897 149.95 73.981 149.228 74.019C148.518 74.057 147.739 74.076 146.891 74.076C146.042 74.076 145.016 74.0443 143.813 73.981C143.445 73.9557 143.148 73.829 142.92 73.601C142.704 73.373 142.578 73.1133 142.54 72.822C142.438 71.7073 142.388 69.9593 142.388 67.578C142.388 65.184 142.426 63.4423 142.502 62.353C142.578 61.2637 143.129 60.7127 144.155 60.7C145.117 60.6873 146.428 60.681 148.088 60.681C149.747 60.681 151.121 60.6937 152.211 60.719C153.781 60.7443 155.067 61.327 156.068 62.467C157.068 63.607 157.569 64.8927 157.569 66.324C157.569 67.16 157.372 67.9327 156.98 68.642C156.6 69.3513 156.03 69.9213 155.27 70.352ZM175.242 60.7C175.496 60.7 175.622 60.8267 175.622 61.08C175.622 61.2447 175.553 61.422 175.413 61.612L171.157 68.357C171.157 69.383 171.126 70.8777 171.062 72.841C171.05 73.1197 170.929 73.3793 170.701 73.62C170.473 73.848 170.169 73.9747 169.789 74C169.067 74.0507 168.2 74.076 167.186 74.076C166.173 74.076 165.242 74.0507 164.393 74C164.013 73.9747 163.709 73.848 163.481 73.62C163.253 73.3793 163.133 73.1197 163.12 72.841C163.095 71.5617 163.082 70.2317 163.082 68.851L159.244 62.41C159.054 62.1187 158.959 61.878 158.959 61.688C158.959 61.0547 159.27 60.738 159.89 60.738L166.388 60.7C166.756 60.7 167.028 60.757 167.205 60.871C167.395 60.985 167.617 61.2193 167.87 61.574L169.029 64.063C169.232 64.3417 169.397 64.481 169.523 64.481C169.663 64.481 169.827 64.367 170.017 64.139L171.955 61.099C172.171 60.833 172.443 60.7 172.772 60.7H175.242ZM192.49 71.549V73.145C192.49 73.6897 192.117 73.981 191.369 74.019C190.635 74.057 189.83 74.076 188.956 74.076C188.095 74.076 187.107 74.0443 185.992 73.981C185.625 73.9557 185.327 73.829 185.099 73.601C184.884 73.373 184.757 73.1133 184.719 72.822C184.618 71.7073 184.567 69.9593 184.567 67.578C184.567 65.184 184.605 63.4423 184.681 62.353C184.757 61.2637 185.308 60.7127 186.334 60.7C187.512 60.6747 188.773 60.662 190.115 60.662C191.458 60.662 192.908 60.681 194.466 60.719C196.037 60.757 197.316 61.346 198.304 62.486C199.292 63.626 199.786 64.88 199.786 66.248C199.786 67.616 199.349 68.7433 198.475 69.63C197.601 70.5167 196.322 70.96 194.637 70.96H193.155C192.991 70.96 192.839 71.017 192.699 71.131C192.56 71.245 192.49 71.3843 192.49 71.549ZM192.471 64.671L192.509 68.186C192.509 68.4267 192.642 68.547 192.908 68.547C193.694 68.547 194.308 68.3317 194.751 67.901C195.207 67.4577 195.435 66.9383 195.435 66.343C195.435 65.7477 195.22 65.2347 194.789 64.804C194.371 64.3733 193.751 64.158 192.927 64.158C192.623 64.158 192.471 64.329 192.471 64.671ZM210.478 74.38C208.945 74.38 207.558 74.1837 206.317 73.791C205.076 73.3857 204.069 72.8473 203.296 72.176C202.523 71.5047 201.934 70.7573 201.529 69.934C201.124 69.098 200.921 68.2303 200.921 67.331C200.921 66.4317 201.124 65.5703 201.529 64.747C201.947 63.911 202.536 63.1573 203.296 62.486C204.069 61.8147 205.076 61.2763 206.317 60.871C207.558 60.4657 208.92 60.263 210.402 60.263C211.884 60.263 213.195 60.4467 214.335 60.814C215.475 61.1813 216.393 61.6817 217.09 62.315C218.509 63.607 219.218 65.1397 219.218 66.913C219.218 67.8123 219.022 68.6927 218.629 69.554C218.249 70.4153 217.698 71.2007 216.976 71.91C216.267 72.6067 215.348 73.183 214.221 73.639C213.094 74.0823 211.846 74.3293 210.478 74.38ZM214.24 67.008C214.24 66.4 214.025 65.8743 213.594 65.431C213.163 64.975 212.505 64.747 211.618 64.747C210.744 64.747 210.047 64.9813 209.528 65.45C209.009 65.9187 208.749 66.4887 208.749 67.16C208.749 67.8313 209.021 68.3697 209.566 68.775C210.111 69.1803 210.763 69.383 211.523 69.383C212.296 69.383 212.942 69.136 213.461 68.642C213.98 68.148 214.24 67.6033 214.24 67.008ZM226.687 74.38C225.598 74.38 224.578 74.2597 223.628 74.019C222.691 73.7783 222.026 73.5377 221.633 73.297C221.253 73.0563 221 72.8853 220.873 72.784C220.544 72.518 220.379 72.1507 220.379 71.682C220.379 71.3147 220.424 70.9663 220.512 70.637C220.677 70.0163 220.975 69.706 221.405 69.706C221.545 69.7187 221.988 69.8643 222.735 70.143C223.495 70.4217 224.091 70.561 224.521 70.561C225.167 70.561 225.49 70.3077 225.49 69.801C225.49 69.497 225.332 69.2183 225.015 68.965C224.699 68.699 224.312 68.4457 223.856 68.205C223.413 67.9643 222.963 67.692 222.507 67.388C222.051 67.0713 221.665 66.6407 221.348 66.096C221.032 65.5387 220.873 64.8927 220.873 64.158C220.873 62.942 221.469 61.992 222.659 61.308C223.85 60.6113 225.389 60.263 227.276 60.263C229.164 60.263 230.658 60.4593 231.76 60.852C232.875 61.232 233.432 61.764 233.432 62.448C233.432 62.942 233.318 63.379 233.09 63.759C232.862 64.1263 232.622 64.31 232.368 64.31C232.28 64.31 231.982 64.215 231.475 64.025C230.981 63.8223 230.532 63.721 230.126 63.721C229.328 63.721 228.929 64.0313 228.929 64.652C228.929 64.956 229.119 65.2347 229.499 65.488C229.879 65.7413 230.335 65.9883 230.867 66.229C231.412 66.457 231.957 66.7167 232.501 67.008C233.046 67.2993 233.508 67.6983 233.888 68.205C234.268 68.7117 234.458 69.326 234.458 70.048C234.458 70.77 234.224 71.4287 233.755 72.024C233.299 72.6193 232.691 73.0817 231.931 73.411C230.424 74.057 228.676 74.38 226.687 74.38ZM246.652 72.841C246.639 73.1197 246.519 73.3793 246.291 73.62C246.063 73.848 245.759 73.9747 245.379 74C244.657 74.0507 243.789 74.076 242.776 74.076C241.762 74.076 240.831 74.0507 239.983 74C239.603 73.9747 239.299 73.848 239.071 73.62C238.843 73.3793 238.722 73.1197 238.71 72.841C238.672 70.9157 238.653 69.2753 238.653 67.92C238.653 66.552 238.659 65.5513 238.672 64.918C238.672 64.4367 238.456 64.196 238.026 64.196H236.316C236.05 64.196 235.834 64.1327 235.67 64.006C235.505 63.8793 235.41 63.6577 235.385 63.341C235.372 63.0243 235.366 62.695 235.366 62.353C235.366 62.011 235.372 61.7197 235.385 61.479C235.41 61.2257 235.511 61.0357 235.689 60.909C235.879 60.7697 236.081 60.7 236.297 60.7C237.943 60.6747 240.173 60.662 242.985 60.662C245.797 60.662 247.811 60.6747 249.027 60.7C249.242 60.7127 249.438 60.7823 249.616 60.909C249.806 61.0357 249.907 61.2257 249.92 61.479C249.945 61.7197 249.958 62.0047 249.958 62.334C249.958 62.6633 249.951 62.98 249.939 63.284C249.901 63.854 249.59 64.139 249.008 64.139H247.298C246.867 64.139 246.652 64.3607 246.652 64.804C246.69 66.4 246.709 67.844 246.709 69.136C246.709 70.428 246.69 71.663 246.652 72.841ZM266.575 71.549V73.145C266.575 73.6897 266.201 73.981 265.454 74.019C264.719 74.057 263.915 74.076 263.041 74.076C262.18 74.076 261.192 74.0443 260.077 73.981C259.71 73.9557 259.412 73.829 259.184 73.601C258.969 73.373 258.842 73.1133 258.804 72.822C258.703 71.7073 258.652 69.9593 258.652 67.578C258.652 65.184 258.69 63.4423 258.766 62.353C258.842 61.2637 259.393 60.7127 260.419 60.7C261.597 60.6747 262.857 60.662 264.2 60.662C265.543 60.662 266.993 60.681 268.551 60.719C270.122 60.757 271.401 61.346 272.389 62.486C273.377 63.626 273.871 64.88 273.871 66.248C273.871 67.616 273.434 68.7433 272.56 69.63C271.686 70.5167 270.407 70.96 268.722 70.96H267.24C267.075 70.96 266.923 71.017 266.784 71.131C266.645 71.245 266.575 71.3843 266.575 71.549ZM266.556 64.671L266.594 68.186C266.594 68.4267 266.727 68.547 266.993 68.547C267.778 68.547 268.393 68.3317 268.836 67.901C269.292 67.4577 269.52 66.9383 269.52 66.343C269.52 65.7477 269.305 65.2347 268.874 64.804C268.456 64.3733 267.835 64.158 267.012 64.158C266.708 64.158 266.556 64.329 266.556 64.671ZM284.562 74.38C283.03 74.38 281.643 74.1837 280.401 73.791C279.16 73.3857 278.153 72.8473 277.38 72.176C276.608 71.5047 276.019 70.7573 275.613 69.934C275.208 69.098 275.005 68.2303 275.005 67.331C275.005 66.4317 275.208 65.5703 275.613 64.747C276.031 63.911 276.62 63.1573 277.38 62.486C278.153 61.8147 279.16 61.2763 280.401 60.871C281.643 60.4657 283.004 60.263 284.486 60.263C285.968 60.263 287.279 60.4467 288.419 60.814C289.559 61.1813 290.478 61.6817 291.174 62.315C292.593 63.607 293.302 65.1397 293.302 66.913C293.302 67.8123 293.106 68.6927 292.713 69.554C292.333 70.4153 291.782 71.2007 291.06 71.91C290.351 72.6067 289.433 73.183 288.305 73.639C287.178 74.0823 285.93 74.3293 284.562 74.38ZM288.324 67.008C288.324 66.4 288.109 65.8743 287.678 65.431C287.248 64.975 286.589 64.747 285.702 64.747C284.828 64.747 284.132 64.9813 283.612 65.45C283.093 65.9187 282.833 66.4887 282.833 67.16C282.833 67.8313 283.106 68.3697 283.65 68.775C284.195 69.1803 284.847 69.383 285.607 69.383C286.38 69.383 287.026 69.136 287.545 68.642C288.065 68.148 288.324 67.6033 288.324 67.008ZM302.729 71.549V73.145C302.729 73.6897 302.355 73.981 301.608 74.019C300.873 74.057 300.069 74.076 299.195 74.076C298.334 74.076 297.346 74.0443 296.231 73.981C295.864 73.9557 295.566 73.829 295.338 73.601C295.123 73.373 294.996 73.1133 294.958 72.822C294.857 71.7073 294.806 69.9593 294.806 67.578C294.806 65.184 294.844 63.4423 294.92 62.353C294.996 61.2637 295.547 60.7127 296.573 60.7C297.751 60.6747 299.011 60.662 300.354 60.662C301.697 60.662 303.147 60.681 304.705 60.719C306.276 60.757 307.555 61.346 308.543 62.486C309.531 63.626 310.025 64.88 310.025 66.248C310.025 67.616 309.588 68.7433 308.714 69.63C307.84 70.5167 306.561 70.96 304.876 70.96H303.394C303.229 70.96 303.077 71.017 302.938 71.131C302.799 71.245 302.729 71.3843 302.729 71.549ZM302.71 64.671L302.748 68.186C302.748 68.4267 302.881 68.547 303.147 68.547C303.932 68.547 304.547 68.3317 304.99 67.901C305.446 67.4577 305.674 66.9383 305.674 66.343C305.674 65.7477 305.459 65.2347 305.028 64.804C304.61 64.3733 303.989 64.158 303.166 64.158C302.862 64.158 302.71 64.329 302.71 64.671ZM313.458 60.377C313.94 60.301 314.51 60.263 315.168 60.263C315.827 60.263 316.391 60.301 316.859 60.377C317.328 60.4403 317.676 60.5163 317.904 60.605C318.132 60.6937 318.31 60.8203 318.436 60.985C318.563 61.137 318.633 61.27 318.645 61.384C318.671 61.4853 318.683 61.6247 318.683 61.802C318.683 63.6767 318.164 65.9377 317.125 68.585C316.999 68.927 316.777 69.1423 316.46 69.231C316.144 69.3197 315.732 69.364 315.225 69.364H315.016C313.927 69.364 313.287 69.1043 313.097 68.585C312.059 65.9377 311.539 63.6767 311.539 61.802C311.539 61.6373 311.552 61.498 311.577 61.384C311.603 61.2573 311.685 61.118 311.824 60.966C311.964 60.814 312.154 60.6937 312.394 60.605C312.635 60.5163 312.99 60.4403 313.458 60.377ZM312.717 72.347C312.717 71.7263 312.939 71.2007 313.382 70.77C313.838 70.3393 314.446 70.124 315.206 70.124C315.966 70.124 316.53 70.333 316.897 70.751C317.265 71.169 317.448 71.6567 317.448 72.214C317.448 72.7587 317.227 73.259 316.783 73.715C316.34 74.1583 315.783 74.38 315.111 74.38C314.453 74.38 313.889 74.1963 313.42 73.829C312.952 73.449 312.717 72.955 312.717 72.347Z" fill="#1680C1"/>
</svg>
